<?xml version="1.0" encoding="utf-8"?>
<!-- Generator: Adobe Illustrator 27.5.0, SVG Export Plug-In . SVG Version: 6.00 Build 0)  -->
<svg version="1.1" xmlns="http://www.w3.org/2000/svg" xmlns:xlink="http://www.w3.org/1999/xlink" x="0px" y="0px"
	 viewBox="0 0 750 500" style="enable-background:new 0 0 750 500;" xml:space="preserve">
<g id="BACKGROUND">
	<g>
		<rect style="fill:#FFFFFF;" width="750" height="500"/>
		<path style="fill:#71C2C9;" d="M639.02,458.01H70.49c-18.75-26.55-15.97-74.73-5.27-101.43c16.1-40.21,49.19-55.46,77.64-83.9
			c43.89-43.88,39.08-115.07,77.18-162.97c32.16-40.43,86.4-62.35,137.02-57.83c50.03,4.48,58.76,56.38,86.91,88.52
			c10.89,12.43,23.83,21.34,37.82,27.79c22.37,10.32,47.42,14.36,71.01,16.5c58.8,5.33,119.43,21.54,129.26,112.46
			C692.19,390.81,639.02,458.01,639.02,458.01z"/>
	</g>
</g>
<g id="OBJECTS">
	<g>
		<path style="fill:#CADCED;" d="M689.703,458.435c0,3.54-142.229,6.411-317.678,6.411s-317.678-2.87-317.678-6.411
			c0-3.54,142.229-6.41,317.678-6.41S689.703,454.895,689.703,458.435z"/>
		<g>
			<polygon style="fill:#C94747;" points="443.653,413.994 338.313,413.994 353.547,385.677 458.888,385.677 			"/>
			<g>
				<polygon style="fill:#AAB8C4;" points="400.793,413.648 407.066,409.746 407.231,406.058 402.52,408.988 397.81,406.493 
					397.655,401.165 402.366,398.235 398.984,396.752 392.711,400.654 392.697,404.152 392.281,404.411 364.654,421.594 
					360.522,420.003 354.248,423.905 354.084,427.594 358.795,424.664 363.504,427.159 363.66,432.486 358.949,435.416 
					362.331,436.899 368.604,432.997 368.618,429.5 396.661,412.057 				"/>
				<path style="fill:#8F9BA5;" d="M367.001,420.913c-4.272,1.386-8.54,2.781-12.806,4.184l-0.111,2.497l4.711-2.93l4.71,2.495
					l0.155,5.328l-4.711,2.93l3.381,1.483l6.273-3.902l0.014-3.498l28.043-17.442l4.132,1.591l6.273-3.902l0.077-1.727
					C393.52,411.438,380.345,416.582,367.001,420.913z"/>
			</g>
			<g>
				<path style="fill:#F89334;" d="M377.777,423.797l-5.528,5.252c-0.784,0.744-2.023,0.713-2.767-0.071l-21.958-23.115
					c-0.744-0.784-0.713-2.023,0.071-2.767l5.528-5.251c0.784-0.745,2.023-0.713,2.767,0.071l21.958,23.115
					C378.593,421.814,378.561,423.053,377.777,423.797z"/>
				<path style="fill:#CF7A2B;" d="M369.596,425.891L369.596,425.891c-0.412,0.391-1.063,0.374-1.454-0.037l-17.381-18.297
					c-0.391-0.412-0.374-1.063,0.037-1.453l0,0c0.412-0.391,1.063-0.374,1.453,0.037l17.381,18.297
					C370.024,424.849,370.008,425.5,369.596,425.891z"/>
				<path style="fill:#CF7A2B;" d="M372.177,423.438L372.177,423.438c-0.412,0.391-1.062,0.374-1.453-0.037l-17.381-18.297
					c-0.391-0.412-0.374-1.063,0.037-1.454l0,0c0.412-0.391,1.062-0.374,1.454,0.037l17.381,18.297
					C372.606,422.397,372.589,423.047,372.177,423.438z"/>
				<path style="fill:#CF7A2B;" d="M374.759,420.986L374.759,420.986c-0.412,0.391-1.063,0.374-1.453-0.037l-17.381-18.297
					c-0.391-0.412-0.374-1.062,0.037-1.453l0,0c0.412-0.391,1.063-0.374,1.454,0.037l17.381,18.297
					C375.188,419.944,375.171,420.595,374.759,420.986z"/>
			</g>
			<g>
				<path style="fill:#F8897A;" d="M403.383,433.415l-3.777-6.624c-0.535-0.939-0.208-2.134,0.731-2.67l27.696-15.792
					c0.939-0.535,2.134-0.208,2.67,0.731l3.777,6.624c0.535,0.939,0.208,2.134-0.731,2.67l-27.696,15.792
					C405.113,434.682,403.918,434.354,403.383,433.415z"/>
				<path style="fill:#CF7265;" d="M403.307,424.971L403.307,424.971c-0.281-0.493-0.109-1.121,0.384-1.402l21.923-12.5
					c0.493-0.281,1.121-0.109,1.402,0.384l0,0c0.281,0.493,0.109,1.121-0.384,1.402l-21.923,12.5
					C404.216,425.636,403.588,425.464,403.307,424.971z"/>
				<path style="fill:#CF7265;" d="M405.07,428.064L405.07,428.064c-0.281-0.493-0.109-1.121,0.384-1.402l21.923-12.5
					c0.493-0.281,1.121-0.109,1.402,0.384l0,0c0.281,0.493,0.109,1.121-0.384,1.402l-21.923,12.5
					C405.979,428.729,405.352,428.557,405.07,428.064z"/>
				<path style="fill:#CF7265;" d="M406.834,431.158L406.834,431.158c-0.281-0.493-0.109-1.121,0.384-1.402l21.923-12.5
					c0.493-0.281,1.121-0.109,1.402,0.384l0,0c0.281,0.493,0.109,1.121-0.384,1.402l-21.923,12.5
					C407.743,431.823,407.115,431.651,406.834,431.158z"/>
			</g>
			<path style="fill:#F15555;" d="M436.116,458.832h-29.465v-37.594h37.594v29.465C444.244,455.193,440.605,458.832,436.116,458.832
				z"/>
			<path style="fill:#FF5A5A;" d="M409.945,458.832h-70.524c-4.489,0-8.128-3.639-8.128-8.128v-29.465h86.781v29.465
				C418.074,455.193,414.434,458.832,409.945,458.832z"/>
			<rect x="418.074" y="421.238" style="opacity:0.72;fill:#B8CDE0;" width="26.171" height="3.835"/>
			<rect x="331.293" y="421.238" style="opacity:0.72;fill:#B8CDE0;" width="86.78" height="3.835"/>
			<path style="fill:#F15555;" d="M447.884,412.413h-36.831c-1.149,0-2.081,0.932-2.081,2.081v4.664
				c0,1.149,0.931,2.081,2.081,2.081h36.831c1.149,0,2.081-0.931,2.081-2.081v-4.664
				C449.964,413.345,449.033,412.413,447.884,412.413z"/>
			<path style="fill:#FF5A5A;" d="M419.347,412.413h-91.693c-1.149,0-2.081,0.932-2.081,2.081v4.664
				c0,1.149,0.932,2.081,2.081,2.081h91.693c1.149,0,2.081-0.931,2.081-2.081v-4.664
				C421.428,413.345,420.496,412.413,419.347,412.413z"/>
			<polygon style="fill:#FF5A5A;" points="457.27,385.677 353.547,385.677 351.93,380.025 457.27,380.025 			"/>
			<polygon style="fill:#F15555;" points="443.653,413.994 437.575,416.826 457.27,380.025 458.888,385.677 			"/>
			<polygon style="fill:#F15555;" points="338.313,413.994 332.235,416.826 351.93,380.025 353.547,385.677 			"/>
		</g>
		<g>
			<path style="fill:#8CAFD4;" d="M613.562,199.743h9.87c1.509,0,2.732,1.223,2.732,2.732v3.626H610.83v-3.626
				C610.83,200.966,612.053,199.743,613.562,199.743z"/>
			
				<rect x="582.865" y="343.148" transform="matrix(-1 -1.224647e-16 1.224647e-16 -1 1214.6626 801.6151)" style="fill:#E8F4FF;" width="48.932" height="115.32"/>
			<path style="fill:#E8F4FF;" d="M503.887,385.355l82.85-42.207l35.14,42.207v73.113h-97.255h-39.085l17.025-40.801
				C506.845,407.399,507.315,395.938,503.887,385.355L503.887,385.355z"/>
			<polygon style="fill:#E8F4FF;" points="489.279,449.496 485.536,458.467 631.797,458.467 631.797,449.496 			"/>
			<path style="fill:#E8F4FF;" d="M575.105,397.846c-25.022,0-69.011,0-69.011,0c-0.169-4.215-0.889-8.418-2.208-12.491
				l80.725-41.125c5.022,10.074,9.144,23.515,9.144,32.389C593.755,384.141,589.047,397.846,575.105,397.846z"/>
			
				<rect x="565.873" y="313.764" transform="matrix(-1 -1.224647e-16 1.224647e-16 -1 1197.6699 632.9265)" style="fill:#BBD6F2;" width="65.925" height="5.399"/>
			
				<rect x="563.597" y="319.163" transform="matrix(-1 -1.224647e-16 1.224647e-16 -1 1195.3942 662.3102)" style="fill:#FFFFFF;" width="68.2" height="23.985"/>
			<polygon style="fill:#FFFFFF;" points="597.697,319.163 631.797,319.163 631.797,219.001 582.865,219.001 			"/>
			<rect x="582.865" y="219.001" style="fill:#E8F4FF;" width="48.932" height="5.692"/>
			
				<rect x="607.331" y="219.001" transform="matrix(-1 -1.224647e-16 1.224647e-16 -1 1239.1285 538.1635)" style="fill:#E8F4FF;" width="24.466" height="100.162"/>
			<path style="fill:#FFFFFF;" d="M588.078,203.186h43.72v15.815h-48.754c-2.977,0-5.39-2.413-5.39-5.39l0,0
				C577.653,207.853,582.32,203.186,588.078,203.186z"/>
			<path style="fill:#FFFFFF;" d="M511.124,385.677h55.058c11.352,0,20.555-9.203,20.555-20.555V317.29
				c0-3.256-2.639-5.895-5.895-5.895H439.656l-5.395,11.331c-1.97,4.138-2.024,8.933-0.147,13.114v0
				C447.732,366.167,477.88,385.677,511.124,385.677z"/>
			<path style="fill:#E8F4FF;" d="M432.857,331.216c-0.329-2.876,0.132-5.819,1.404-8.49l5.395-11.331h141.186
				c3.256,0,5.895,2.639,5.895,5.895v13.926H432.857z"/>
			<path style="fill:#E8F4FF;" d="M435.957,319.163l3.699-7.768h141.186c3.256,0,5.895,2.639,5.895,5.895v1.873H435.957z"/>
			<path style="fill:#FFFFFF;" d="M484.951,296.299h74.216c7.632,0,14.883,3.336,19.849,9.132l7.72,9.011H435.674
				c-1.745,0-3.29-1.129-3.82-2.792l0,0c-0.662-2.077,0.457-4.303,2.519-5.01l10.8-3.706
				C457.974,298.541,471.416,296.299,484.951,296.299z"/>
		</g>
		<g>
			<path style="opacity:0.72;fill:#B8CDE0;" d="M274.784,186.365V52.104c0-3.956,3.207-7.163,7.163-7.163h104.748
				c3.956,0,7.163,3.207,7.163,7.163v134.261c0,3.956-3.207,7.163-7.163,7.163H281.946
				C277.991,193.527,274.784,190.32,274.784,186.365z"/>
			<path style="fill:#FFFFFF;" d="M272.192,183.403V49.142c0-3.956,3.207-7.163,7.163-7.163h104.748
				c3.956,0,7.163,3.207,7.163,7.163v134.261c0,3.956-3.207,7.163-7.163,7.163H279.355
				C275.399,190.565,272.192,187.358,272.192,183.403z"/>
			<path style="fill:#ADE2FF;" d="M385.489,50.959v130.624c0,1.767-1.432,3.199-3.199,3.199H281.17
				c-1.767,0-3.199-1.432-3.199-3.199V50.959c0-1.767,1.432-3.199,3.199-3.199h101.12C384.057,47.76,385.489,49.192,385.489,50.959z
				"/>
			<polygon style="opacity:0.29;fill:#FFFFFF;" points="345.303,184.786 287.836,184.786 351.667,47.759 385.486,47.759 
				385.486,94.985 			"/>
			<polygon style="opacity:0.29;fill:#FFFFFF;" points="340.245,47.76 277.971,184.783 277.971,163.399 330.526,47.76 			"/>
		</g>
		<g>
			<path style="fill:#FEC4AD;" d="M289.632,283.181c4.568-4.652,15.726-9.427,17.077-12.331c1.887-4.055,2.701-7.485,6.204-10.085
				c3.502-2.6,6.333-5.407,8.214-7.526c1.881-2.119,4.227-3.358,7.124-3.2c2.896,0.158,0.168,4.224-1.661,5.377
				c-1.829,1.153-3.608,4.531-3.868,6.168c-0.26,1.638,6.498,2.007,10.636,1.321c4.138-0.685,8.241,0.336,11.585,0.632
				c3.344,0.296,4.428,2.349,4.428,2.349s2.379,0.244,4.119,1.763c1.74,1.519-0.899,2.913-0.899,2.913s0.395,1.104-1.295,1.809
				c-1.69,0.705-4.758-0.488-4.758-0.488s-0.623,2.017-4.415,1.582c-3.792-0.435-10.448,0.455-14.88,1.295
				c-4.432,0.84-9.532,5.203-12.893,4.165c-3.361-1.038-15.569,14.763-15.569,14.763L289.632,283.181z"/>
			<path style="fill:#FFBC00;" d="M253.167,291.026c8.571-1.325,38.105-12.859,51.923-18.413c2.913,5.93,4.083,8.073,7.272,11.354
				c-23.198,15.103-41.1,26.043-55.855,30.453c-4.243,1.268-9.597,1.899-15.634,2.027c-15.823,0.336-40.579,0.028-58.065-4.113
				l7.293-27.314C190.101,285.019,243.92,292.455,253.167,291.026z"/>
			<g>
				<path style="opacity:0.72;fill:#B8CDE0;" d="M387.142,343.87c-3.836,0-7.228,1.871-9.338,4.742
					c-0.033,0.045-0.068,0.089-0.1,0.134c-0.154,0.216-0.298,0.439-0.438,0.666c-0.035,0.057-0.073,0.111-0.107,0.168h-14.293v-1.36
					c0-0.509-0.413-0.922-0.922-0.922h-2.477h-0.214h-1.425v1.425v0.857h-17.763v11.772h17.763v0.857v1.425h1.425h0.214h2.477
					c0.509,0,0.922-0.413,0.922-0.922v-1.36h4.384v0h9.906c0.042,0.07,0.09,0.136,0.133,0.206c0.111,0.18,0.222,0.359,0.343,0.532
					c0.067,0.096,0.139,0.186,0.209,0.28c0.14,0.188,0.279,0.377,0.43,0.556l0,0l0,0c2.127,2.527,5.31,4.137,8.872,4.137
					c6.404,0,11.596-5.192,11.596-11.596C398.738,349.062,393.546,343.87,387.142,343.87z"/>
				<path style="opacity:0.72;fill:#B8CDE0;" d="M404.283,234.452H275.571c-2.682,0-4.856,2.174-4.856,4.856v6.3
					c0,2.682,2.174,4.856,4.856,4.856h0.831l4.683,5.148l11.338,12.466c5.349,5.873,12.92,9.222,20.862,9.222h53.284
					c7.942,0,15.513-3.349,20.862-9.222l11.338-12.466l4.683-5.148h0.83c2.682,0,4.856-2.174,4.856-4.856v-6.3
					C409.139,236.627,406.965,234.452,404.283,234.452z"/>
				<circle style="fill:#8CAFD4;" cx="387.9" cy="351.281" r="11.596"/>
				<circle style="fill:#E8F4FF;" cx="387.9" cy="351.281" r="10.05"/>
				<path style="fill:#B8CDE0;" d="M388.241,343.731h-9.131c-1.745,2.03-2.806,4.664-2.806,7.55c0,2.842,1.026,5.442,2.724,7.459
					h9.213c4.145,0,7.505-3.36,7.505-7.505l0,0C395.745,347.091,392.385,343.731,388.241,343.731z"/>
				
					<ellipse transform="matrix(0.2305 -0.9731 0.9731 0.2305 -43.3404 647.7542)" style="fill:#E8F4FF;" cx="387.9" cy="351.281" rx="7.811" ry="7.811"/>
				<path style="fill:#E8F4FF;" d="M393.085,351.281L393.085,351.281c0,3.251-2.635,5.886-5.886,5.886h-46.375v-11.772h46.375
					C390.45,345.395,393.085,348.03,393.085,351.281z"/>
				<rect x="362.686" y="345.395" style="fill:#E8F4FF;" width="5.322" height="11.772"/>
				
					<rect x="339.05" y="347.168" transform="matrix(6.123234e-17 -1 1 6.123234e-17 -6.3445 696.2172)" style="fill:#B8CDE0;" width="11.772" height="8.225"/>
				<path style="fill:#E8F4FF;" d="M363.625,344.035v14.492c0,0.509-0.413,0.922-0.922,0.922h-2.691
					c-0.787,0-1.425-0.638-1.425-1.424v-13.487c0-0.787,0.638-1.425,1.425-1.425h2.691
					C363.212,343.113,363.625,343.526,363.625,344.035z"/>
				
					<rect x="351.239" y="350.461" transform="matrix(6.123234e-17 -1 1 6.123234e-17 8.1258 710.6875)" style="fill:#E8F4FF;" width="16.336" height="1.639"/>
				<rect x="328.155" y="273.909" style="fill:#E8F4FF;" width="11.772" height="65.44"/>
				<rect x="328.155" y="295.771" style="fill:#8CAFD4;" width="11.772" height="5.322"/>
				<rect x="328.155" y="337.596" style="fill:#E8F4FF;" width="11.772" height="1.753"/>
				<rect x="328.155" y="273.909" style="fill:#E8F4FF;" width="11.772" height="4.983"/>
				<path style="fill:#E8F4FF;" d="M334.041,368.949L334.041,368.949c-5.096,0-9.226-4.131-9.226-9.226v-18.541h18.453v18.541
					C343.267,364.818,339.137,368.949,334.041,368.949z"/>
				<rect x="324.815" y="341.182" style="fill:#E8F4FF;" width="18.452" height="7.811"/>
				<path style="fill:#8CAFD4;" d="M342.706,270.339h-17.33c-0.509,0-0.922-0.413-0.922-0.922v-6.11h19.174v6.11
					C343.628,269.926,343.215,270.339,342.706,270.339z"/>
				<path style="fill:#B8CDE0;" d="M342.706,270.339h-17.33c-0.509,0-0.922-0.413-0.922-0.922v-6.11h19.174v6.11
					C343.628,269.926,343.215,270.339,342.706,270.339z"/>
				<path style="fill:#E8F4FF;" d="M341.287,275.377h-14.492c-0.509,0-0.922-0.413-0.922-0.922v-4.115h16.336v4.115
					C342.209,274.964,341.796,275.377,341.287,275.377z"/>
				<rect x="325.873" y="270.339" style="fill:#E8F4FF;" width="16.336" height="1.639"/>
				<path style="fill:#E8F4FF;" d="M341.287,296.71h-14.492c-0.509,0-0.922-0.413-0.922-0.922v-2.691
					c0-0.787,0.638-1.425,1.425-1.425h13.487c0.787,0,1.425,0.638,1.425,1.425v2.691C342.209,296.297,341.796,296.71,341.287,296.71
					z"/>
				<rect x="325.873" y="291.673" style="fill:#E8F4FF;" width="16.336" height="1.639"/>
				<g>
					<path style="fill:#E8F4FF;" d="M396.553,238.221l-4.686,5.152l-11.338,12.466c-5.349,5.873-12.92,9.222-20.862,9.222h-53.284
						c-7.943,0-15.513-3.349-20.862-9.222l-11.338-12.466l-4.686-5.152H396.553z"/>
					<polygon style="fill:#E8F4FF;" points="396.553,238.221 391.867,243.373 274.182,243.373 269.496,238.221 					"/>
					<path style="fill:#FFFFFF;" d="M397.38,238.225H268.668c-2.682,0-4.856-2.174-4.856-4.856v-6.3
						c0-2.682,2.174-4.856,4.856-4.856H397.38c2.682,0,4.856,2.174,4.856,4.856v6.3C402.236,236.051,400.062,238.225,397.38,238.225
						z"/>
				</g>
				<path style="fill:#E8F4FF;" d="M343.543,343.113h-19.005c-1.039,0-1.882-0.843-1.882-1.882l0,0c0-1.039,0.843-1.882,1.882-1.882
					h19.005c1.039,0,1.882,0.843,1.882,1.882l0,0C345.426,342.27,344.583,343.113,343.543,343.113z"/>
				<g>
					<rect x="362.883" y="217.728" style="fill:#E8F4FF;" width="9.142" height="4.49"/>
					<rect x="362.883" y="217.728" style="fill:#E8F4FF;" width="9.142" height="2.245"/>
					<rect x="361.66" y="214.426" style="fill:#E8F4FF;" width="11.587" height="3.301"/>
				</g>
				<g>
					<rect x="296.658" y="217.728" style="fill:#E8F4FF;" width="9.142" height="4.49"/>
					<rect x="296.658" y="217.728" style="fill:#E8F4FF;" width="9.142" height="2.245"/>
					<rect x="295.435" y="214.426" style="fill:#E8F4FF;" width="11.587" height="3.301"/>
				</g>
				<g>
					<path style="fill:#E8F4FF;" d="M311.983,201.295v0.768c0,0.65,0.313,1.181,0.712,1.208c3.35,0.223,17.569,2.176,22.014,19.23
						h15.894c0,0-10.993-20.86-31.188-25.117c-1.424-0.3-2.916-0.518-4.48-0.64C313.332,196.618,311.983,198.686,311.983,201.295z"
						/>
					<path style="fill:#E8F4FF;" d="M341.919,222.497h-7.209c-2.895-11.101-9.933-15.807-15.417-17.795
						c-2.937-1.066-5.431-1.354-6.601-1.431c-0.396-0.029-0.709-0.557-0.709-1.21v-0.835c0.006-0.73,0.13-1.412,0.325-2.017
						c8.273-0.106,16.445,3.899,23.111,12.09C338.031,214.507,340.117,218.339,341.919,222.497z"/>
					<path style="fill:#8CAFD4;" d="M319.293,204.702c-2.937-1.066-5.431-1.354-6.601-1.431c-0.396-0.029-0.709-0.557-0.709-1.21
						v-0.835h4.781C318.034,201.226,319.098,202.724,319.293,204.702z"/>
				</g>
			</g>
			<g>
				<path style="fill:#003D7D;" d="M200.851,391.364c0,0,46.972,26.298,64.86,36.4c17.888,10.101,15.827,24.583,15.752,29.918
					l-127.39-0.436l4.958-20.158c0,0,46.355,9.154,59.302,12.203c0,0-39.963-4.56-59.302-12.203c-19.34-7.643-27.438-17-27.438-17
					L200.851,391.364z"/>
				<g>
					<path style="fill:#133A50;" d="M148.995,438.556l-12.301-2.846c0,0-20.387,8.326-25.544,13.36
						c-1.604,1.566-5.575,5.969-4.347,7.846c1.348,2.059,4.437,0,9.842,0c4.532,0,16.895-0.046,20.743-0.046
						c4.409,0,10.13,0.015,10.13,0.015L148.995,438.556z"/>
					<polygon style="fill:#2873AC;" points="147.295,438.303 146.375,458.789 164.236,458.832 168.1,435.949 					"/>
				</g>
				<path style="fill:#FEC4AD;" d="M192.24,255.761c0,0-9.15,7.046-14.763,12.704c-2.447,2.467-2.415,2.999-6.033,2.999
					l30.727,25.456c0,0-4.823-6.204-3.005-11.745c1.637-4.987,8.792-16.462,13.744-20.114L192.24,255.761z"/>
				<path style="fill:#F0B9A3;" d="M189.722,261.691c-1.313,5.817,4.529,16.256,7.56,22.062c0.505,0.967,1.028,1.931,1.568,2.888
					c0.065-0.49,0.158-0.98,0.317-1.465c1.637-4.987,8.792-16.462,13.744-20.114l-20.67-9.301c0,0-0.914,0.704-2.338,1.843
					C190.084,258.866,190.052,260.229,189.722,261.691z"/>
				<g>
					<path style="fill:#FEC4AD;" d="M226.808,250.358c0.501,1.393,3.901,7.982,3.544,9.245c-0.495,1.752-5.056,0.867-6.186,2.313
						c-1.828,2.34-0.621,4.191-1.634,6.844c-1.228,3.215-0.755,7.807-2.83,9.69c-3.459,3.138-13.078,0.427-17.627-1.902
						c-10.779-5.517-19.043-17.351-16.232-31.977c1.005-5.23,4.845-10.835,8.702-14.589c4.533-4.412,12.664-4.84,17.63-3.536
						c2.979,0.783,5.686,3.205,7.691,5.417c1.816,2.003,4.769,4.713,5.481,7.528C225.348,239.393,225.68,247.22,226.808,250.358z"/>
				</g>
				<path style="fill:#411919;" d="M180.135,228.982c-0.036-0.015-0.308-1.669,2.162-6.275c4.134-7.71,22.169-7.642,35.212-5.073
					c4.348,0.856,8.726-2.494,11.07,0.218c1.799,2.081,0.549,15.316-2.301,18.122c-4.751,4.676-18.934,0.383-24.306-1.871
					c-3.865-1.622,1.096,4.489,1.858,7.529c0.496,1.979-2.219,8.98-2.493,10.338c-4.416-1.134-2.597-4.824-5.776-7.647
					c-2.937-2.608-6.067,1.371-5.146,4.648c1.426,5.077,5.366,5.578,5.366,5.578c-0.156,2.704-2.053,5.465-2.053,5.465
					s-8.201,3.421-9.905,1.663c-1.281-1.322-6.941-12.694-8.382-15.927C172.366,238.848,174.246,233.153,180.135,228.982z"/>
				<path style="fill:#FFBC00;" d="M171.444,271.465c0,0-5.638,0.192-14.785,10.863c-42.953,50.111-25.066,137.76-25.066,137.76
					s38.267,7.78,66.473-35.886c0,0-3.684-12.777-2.206-31.547c1.663-21.123,8.343-49.065,4.972-60.128
					c-1.339-4.395-6.232-5.805-10.73-9.465C179.773,274.657,171.444,271.465,171.444,271.465z"/>
				<path style="fill:#004B9A;" d="M166.007,273.789c2.165-0.019,12.689-1.95,29.551,21.535c2.402,3.345,4.936,5.553,6.139,8.57
					c-0.577,13.507-4.598,33.024-5.837,48.761c-1.478,18.77,2.206,31.547,2.206,31.547c-28.206,43.667-66.473,35.886-66.473,35.886
					s-17.887-87.649,25.066-137.76C159.54,278.966,162.839,276.117,166.007,273.789z"/>
				<path style="fill:#FFBC00;" d="M185.289,289.257c-10.467-16.162-23.13-14.77-30.677,0c-7.547,14.77-16.35,61.72-12.829,76.392
					c3.521,14.672,21.552,19.954,32.197,4.108c10.645-15.846,15.927-53.582,16.514-62.004
					C191.081,299.332,187.901,293.289,185.289,289.257z"/>
				<g>
					<path style="fill:#004B9A;" d="M131.593,420.088l8.099,9.357c13.241,15.298,53.418,19.049,69.262,6.467l32.721-39.535
						l-12.957,35.109l15.03,4.224c0,0,38.832-50.062,35.945-71.824c-0.52-3.918-4.934-13.574-10.462-12.651
						c-32.251,5.382-82.547,28.77-82.547,28.77L131.593,420.088z"/>
					<path style="fill:#133A50;" d="M223.88,443.481l-3.92,13.619l45.29,1.303c0,0-3.229-5.587-5.757-7.227
						c-3.507-2.276-17.797-6.371-17.797-6.371L223.88,443.481z"/>
					<polygon style="fill:#2873AC;" points="223.465,443.829 241.696,444.804 248.357,433.46 227.243,426.992 					"/>
				</g>
				<g>
					<polygon style="fill:#E6B397;" points="287.34,357.17 296.404,349.196 303.143,346.507 309.338,348.917 306.385,353.368 					
						"/>
					<g>
						<polygon style="fill:#E8F4FF;" points="307.664,313.063 301.96,311.721 303.033,307.162 308.547,302.493 310.067,302.851 
													"/>
						<polygon style="fill:#E8F4FF;" points="313.419,314.417 319.123,315.759 320.196,311.2 317.341,304.563 315.821,304.205 
													"/>
						<path style="fill:#E8F4FF;" d="M297.145,310.588l-2.004,8.517c-0.156,0.663-0.088,1.36,0.194,1.98l5.279,6.621l7.136,1.679
							l8.312-3.423c0.529-0.429,0.901-1.022,1.057-1.686l2.004-8.517L297.145,310.588z"/>
						<g>
							
								<rect x="298.569" y="313.947" transform="matrix(0.9734 0.2289 -0.2289 0.9734 80.268 -60.1077)" style="fill:#4B698F;" width="1.232" height="3.873"/>
							
								<rect x="300.777" y="314.467" transform="matrix(0.9734 0.229 -0.229 0.9734 80.4824 -60.6209)" style="fill:#4B698F;" width="1.232" height="3.873"/>
							
								<rect x="302.984" y="314.986" transform="matrix(0.9734 0.229 -0.229 0.9734 80.66 -61.1127)" style="fill:#4B698F;" width="1.232" height="3.873"/>
							
								<rect x="305.192" y="315.506" transform="matrix(0.9734 0.229 -0.229 0.9734 80.8306 -61.6004)" style="fill:#4B698F;" width="1.232" height="3.873"/>
						</g>
						
							<rect x="303.955" y="308.379" transform="matrix(0.2291 -0.9734 0.9734 0.2291 -67.8413 536.9596)" style="fill:#E8F4FF;" width="2.225" height="5.86"/>
						
							<rect x="315.413" y="311.075" transform="matrix(0.229 -0.9734 0.9734 0.229 -61.6188 550.2123)" style="fill:#E8F4FF;" width="2.225" height="5.86"/>
						<path style="fill:#E8F4FF;" d="M304.222,348.189l3.365-18.843l-6.789-1.597l-5.15,18.803
							C298.498,347.137,301.358,347.674,304.222,348.189z"/>
						<path style="fill:#E8F4FF;" d="M307.071,332.235l0.516-2.889l-6.789-1.597l-0.451,1.646
							C302.587,330.347,304.826,331.301,307.071,332.235z"/>
						
							<rect x="291.357" y="343.285" transform="matrix(0.9734 0.229 -0.229 0.9734 90.949 -58.2358)" style="fill:#4B698F;" width="10.043" height="38.887"/>
						<path style="fill:#B8CDE0;" d="M292.615,378.727L292.615,378.727c-0.559-0.132-0.906-0.692-0.774-1.251l7.051-29.971
							c0.132-0.559,0.692-0.906,1.251-0.774l0,0c0.559,0.132,0.906,0.692,0.774,1.251l-7.051,29.971
							C293.734,378.512,293.174,378.858,292.615,378.727z"/>
					</g>
					<path style="fill:#FEC4AD;" d="M278.603,356.559c0,0,9.496-0.729,12.467-1.582c2.971-0.852,9.813-0.852,12.549-2.219
						c4.014-2.006,5.718-3.842,5.718-3.842l1.117,3.728l-0.715,1.811l-0.348,5.258l-2.193,5.619c0.703,1.546-0.263,3.63-0.263,3.63
						l-6.027,2.614c0,0-10.563-1.219-13.131-1.67c-2.568-0.45-12.062,0.008-12.062,0.008L278.603,356.559z"/>
					<g>
						<path style="fill:#FFBC00;" d="M180.123,284.596c0,0,25.64,47.433,41.202,54.967c13.278,6.428,57.278,16.996,57.278,16.996
							l0.564,16.704c0,0-58.699-2.985-74.617-12.262c-15.563-9.07-48.105-41.836-52.832-60.365
							C149.702,292.735,156.704,269.412,180.123,284.596z"/>
					</g>
					<path style="fill:#FEC4AD;" d="M289.013,356.999c-2.207-3.024,5.349-7.623,5.349-7.623l-0.233,3.312
						c1.177,1.641,4.278,3.594,4.278,3.594L289.013,356.999z"/>
				</g>
			</g>
		</g>
	</g>
</g>
</svg>
